<svg xmlns="http://www.w3.org/2000/svg" viewBox="0 0 400 300" role="img" aria-label="Caméra de recul dynamique">
  <defs><linearGradient id="bg" x1="0" x2="0" y1="0" y2="1"><stop offset="0" stop-color="#1a1a1f"/><stop offset="1" stop-color="#2a2a33"/></linearGradient></defs>
  <rect width="400" height="300" fill="url(#bg)"/>
  <g fill="none" stroke="#e63946" stroke-width="3">
    <rect x="135" y="100" width="130" height="85" rx="10"/>
    <circle cx="200" cy="143" r="28"/>
    <circle cx="200" cy="143" r="13" fill="#e63946"/>
    <rect x="165" y="88" width="70" height="13" rx="3"/>
    <path d="M 135 155 Q 110 175 88 188"/>
    <path d="M 135 130 Q 110 112 88 98"/>
    <path d="M 265 155 Q 290 175 312 188"/>
    <path d="M 265 130 Q 290 112 312 98"/>
    <path d="M 142 148 Q 122 162 105 172" stroke-width="1.5" opacity="0.55"/>
    <path d="M 258 148 Q 278 162 295 172" stroke-width="1.5" opacity="0.55"/>
  </g>
  <rect x="150" y="196" width="100" height="19" rx="9" fill="#e63946" fill-opacity="0.12" stroke="#e63946" stroke-width="1"/>
  <text x="200" y="209" fill="#e63946" font-family="Barlow Condensed, sans-serif" font-weight="700" font-size="11" text-anchor="middle" letter-spacing="1">LIGNES DYNAMIQUES</text>
  <text x="200" y="235" fill="#e6e6ea" font-family="Barlow Condensed, sans-serif" font-weight="700" font-size="16" text-anchor="middle" letter-spacing="2">CAMÉRA DYNAMIQUE VW</text>
  <text x="200" y="257" fill="#9aa0a6" font-family="Barlow, sans-serif" font-size="12" text-anchor="middle">AREPROG · Retrofit VAG</text>
</svg>
