<svg xmlns="http://www.w3.org/2000/svg" viewBox="0 0 400 300" role="img" aria-label="Caméra 360° Area View">
  <defs><linearGradient id="bg" x1="0" x2="0" y1="0" y2="1"><stop offset="0" stop-color="#1a1a1f"/><stop offset="1" stop-color="#2a2a33"/></linearGradient></defs>
  <rect width="400" height="300" fill="url(#bg)"/>
  <g fill="none" stroke="#e63946" stroke-width="3">
    <circle cx="200" cy="140" r="78" stroke-dasharray="8,5" opacity="0.35"/>
    <rect x="178" y="88" width="44" height="104" rx="14"/>
    <line x1="182" y1="112" x2="222" y2="112"/>
    <line x1="182" y1="172" x2="222" y2="172"/>
    <rect x="186" y="118" width="28" height="20" rx="2" fill="#e63946" fill-opacity="0.1"/>
    <circle cx="200" cy="82" r="7" fill="#e63946" fill-opacity="0.85"/>
    <path d="M 188 76 A 15 15 0 0 1 212 76" stroke-width="2" opacity="0.6"/>
    <circle cx="200" cy="198" r="7" fill="#e63946" fill-opacity="0.85"/>
    <path d="M 188 204 A 15 15 0 0 0 212 204" stroke-width="2" opacity="0.6"/>
    <rect x="155" y="122" width="20" height="30" rx="5" fill="#e63946" fill-opacity="0.08"/>
    <circle cx="165" cy="138" r="6" fill="#e63946" fill-opacity="0.85"/>
    <path d="M 147 128 A 18 18 0 0 0 147 148" stroke-width="2" opacity="0.6"/>
    <rect x="225" y="122" width="20" height="30" rx="5" fill="#e63946" fill-opacity="0.08"/>
    <circle cx="235" cy="138" r="6" fill="#e63946" fill-opacity="0.85"/>
    <path d="M 253 128 A 18 18 0 0 1 253 148" stroke-width="2" opacity="0.6"/>
  </g>
  <text x="200" y="235" fill="#e6e6ea" font-family="Barlow Condensed, sans-serif" font-weight="700" font-size="16" text-anchor="middle" letter-spacing="2">CAMÉRA 360° AREA VIEW</text>
  <text x="200" y="257" fill="#9aa0a6" font-family="Barlow, sans-serif" font-size="12" text-anchor="middle">AREPROG · Retrofit VAG</text>
</svg>
