<svg xmlns="http://www.w3.org/2000/svg" viewBox="0 0 400 300" role="img" aria-label="Codage VAG à distance">
  <defs><linearGradient id="bg" x1="0" x2="0" y1="0" y2="1"><stop offset="0" stop-color="#1a1a1f"/><stop offset="1" stop-color="#2a2a33"/></linearGradient></defs>
  <rect width="400" height="300" fill="url(#bg)"/>
  <g fill="none" stroke="#e63946" stroke-width="3">
    <rect x="110" y="78" width="180" height="112" rx="8"/>
    <rect x="120" y="88" width="160" height="92" rx="4"/>
    <line x1="132" y1="104" x2="185" y2="104" stroke-width="2" opacity="0.8"/>
    <line x1="132" y1="118" x2="210" y2="118" stroke-width="2" opacity="0.8"/>
    <line x1="144" y1="132" x2="178" y2="132" stroke-width="2" opacity="0.6"/>
    <line x1="144" y1="146" x2="200" y2="146" stroke-width="2" opacity="0.8"/>
    <line x1="144" y1="160" x2="215" y2="160" stroke-width="2" opacity="0.6"/>
    <line x1="132" y1="174" x2="170" y2="174" stroke-width="2" opacity="0.8"/>
    <rect x="174" y="170" width="8" height="7" fill="#e63946"/>
    <rect x="88" y="190" width="224" height="10" rx="4" fill="#e63946" fill-opacity="0.2"/>
    <path d="M 295 120 A 22 22 0 0 0 295 160" opacity="0.5"/>
    <path d="M 310 108 A 40 40 0 0 0 310 172" opacity="0.3"/>
  </g>
  <text x="200" y="98" fill="#e63946" font-family="Barlow Condensed, sans-serif" font-weight="700" font-size="9" text-anchor="middle" letter-spacing="1">VCDS CLI · REMOTE</text>
  <rect x="144" y="215" width="112" height="19" rx="9" fill="#e63946" fill-opacity="0.12" stroke="#e63946" stroke-width="1"/>
  <text x="200" y="228" fill="#e63946" font-family="Barlow Condensed, sans-serif" font-weight="700" font-size="11" text-anchor="middle" letter-spacing="1">SESSION VISIO · 30 MIN</text>
  <text x="200" y="253" fill="#e6e6ea" font-family="Barlow Condensed, sans-serif" font-weight="700" font-size="15" text-anchor="middle" letter-spacing="2">CODAGE VAG À DISTANCE</text>
  <text x="200" y="273" fill="#9aa0a6" font-family="Barlow, sans-serif" font-size="12" text-anchor="middle">AREPROG · Retrofit VAG</text>
</svg>
