<svg xmlns="http://www.w3.org/2000/svg" viewBox="0 0 400 300" role="img" aria-label="OBD2 Bluetooth">
  <defs><linearGradient id="bg" x1="0" x2="0" y1="0" y2="1"><stop offset="0" stop-color="#1a1a1f"/><stop offset="1" stop-color="#2a2a33"/></linearGradient></defs>
  <rect width="400" height="300" fill="url(#bg)"/>
  <g fill="none" stroke="#e63946" stroke-width="3">
    <rect x="175" y="95" width="50" height="78" rx="8"/>
    <rect x="182" y="172" width="36" height="11" rx="3"/>
    <circle cx="200" cy="116" r="8" fill="#e63946" fill-opacity="0.85"/>
    <rect x="183" y="135" width="34" height="26" rx="4"/>
    <path d="M 196 143 L 196 158 L 206 153 L 200 149 L 206 144 Z" fill="#e63946" stroke-linejoin="round"/>
    <path d="M 160 113 A 20 20 0 0 0 160 152"/>
    <path d="M 145 102 A 38 38 0 0 0 145 163"/>
    <path d="M 128 90 A 57 57 0 0 0 128 175" opacity="0.4"/>
    <path d="M 240 113 A 20 20 0 0 1 240 152"/>
    <path d="M 255 102 A 38 38 0 0 1 255 163"/>
    <path d="M 272 90 A 57 57 0 0 1 272 175" opacity="0.4"/>
  </g>
  <rect x="142" y="196" width="116" height="19" rx="9" fill="#e63946" fill-opacity="0.12" stroke="#e63946" stroke-width="1"/>
  <text x="200" y="209" fill="#e63946" font-family="Barlow Condensed, sans-serif" font-weight="700" font-size="11" text-anchor="middle" letter-spacing="1">BLUETOOTH 4.0 · OBD2</text>
  <text x="200" y="235" fill="#e6e6ea" font-family="Barlow Condensed, sans-serif" font-weight="700" font-size="16" text-anchor="middle" letter-spacing="2">INTERFACE OBD2 BT</text>
  <text x="200" y="257" fill="#9aa0a6" font-family="Barlow, sans-serif" font-size="12" text-anchor="middle">AREPROG · Retrofit VAG</text>
</svg>
