<svg xmlns="http://www.w3.org/2000/svg" viewBox="0 0 400 300" role="img" aria-label="DISCOVER MEDIA MIB2">
  <defs><linearGradient id="bg" x1="0" x2="0" y1="0" y2="1"><stop offset="0" stop-color="#1a1a1f"/><stop offset="1" stop-color="#2a2a33"/></linearGradient></defs>
  <rect width="400" height="300" fill="url(#bg)"/>
  <g fill="none" stroke="#e63946" stroke-width="3">
    <rect x="85" y="80" width="230" height="115" rx="8"/>
    <rect x="95" y="88" width="170" height="98" rx="4"/>
    <line x1="105" y1="108" x2="255" y2="108" stroke-width="1.5" opacity="0.5"/>
    <line x1="105" y1="128" x2="255" y2="128" stroke-width="1.5" opacity="0.5"/>
    <line x1="105" y1="148" x2="255" y2="148" stroke-width="1.5" opacity="0.5"/>
    <line x1="105" y1="168" x2="255" y2="168" stroke-width="1.5" opacity="0.5"/>
    <line x1="135" y1="88" x2="135" y2="186" stroke-width="1.5" opacity="0.5"/>
    <line x1="175" y1="88" x2="175" y2="186" stroke-width="1.5" opacity="0.5"/>
    <line x1="220" y1="88" x2="220" y2="186" stroke-width="1.5" opacity="0.5"/>
    <path d="M 180 148 L 195 120 L 210 140 L 225 115" stroke-width="2.5"/>
    <circle cx="180" cy="148" r="6" fill="#e63946"/>
    <circle cx="225" cy="115" r="4" fill="#e63946"/>
    <rect x="272" y="96" width="34" height="12" rx="3"/>
    <rect x="272" y="114" width="34" height="12" rx="3"/>
    <circle cx="289" cy="160" r="18"/>
    <circle cx="289" cy="160" r="6" fill="#e63946" fill-opacity="0.4"/>
  </g>
  <rect x="148" y="205" width="104" height="19" rx="9" fill="#e63946" fill-opacity="0.12" stroke="#e63946" stroke-width="1"/>
  <text x="200" y="218" fill="#e63946" font-family="Barlow Condensed, sans-serif" font-weight="700" font-size="11" text-anchor="middle" letter-spacing="1">MIB2 APPCONNECT</text>
  <text x="200" y="243" fill="#e6e6ea" font-family="Barlow Condensed, sans-serif" font-weight="700" font-size="15" text-anchor="middle" letter-spacing="2">DISCOVER MEDIA MIB2</text>
  <text x="200" y="263" fill="#9aa0a6" font-family="Barlow, sans-serif" font-size="12" text-anchor="middle">AREPROG · Retrofit VAG</text>
</svg>
