<svg xmlns="http://www.w3.org/2000/svg" viewBox="0 0 400 300" role="img" aria-label="RÉGULATEUR AUDI A1/Q3">
  <defs><linearGradient id="bg" x1="0" x2="0" y1="0" y2="1"><stop offset="0" stop-color="#1a1a1f"/><stop offset="1" stop-color="#2a2a33"/></linearGradient></defs>
  <rect width="400" height="300" fill="url(#bg)"/>
  <g fill="none" stroke="#e63946" stroke-width="3">
    <circle cx="200" cy="128" r="62"/>
    <circle cx="200" cy="128" r="20" fill="#e63946" fill-opacity="0.12"/>
    <line x1="200" y1="66" x2="200" y2="108"/>
    <line x1="146" y1="158" x2="183" y2="138"/>
    <line x1="254" y1="158" x2="217" y2="138"/>
    <rect x="108" y="134" width="30" height="13" rx="4" fill="#e63946" fill-opacity="0.2"/>
    <rect x="108" y="152" width="30" height="13" rx="4"/>
    <rect x="262" y="134" width="30" height="13" rx="4" fill="#e63946" fill-opacity="0.2"/>
    <rect x="262" y="152" width="30" height="13" rx="4"/>
    <path d="M 114 145 L 132 145 M 123 141 L 123 149" stroke-width="2"/>
    <path d="M 268 145 L 286 145" stroke-width="2"/>
  </g>
  <text x="200" y="132" fill="#e63946" font-family="Barlow Condensed, sans-serif" font-weight="700" font-size="10" text-anchor="middle" letter-spacing="1">AUDI</text>
  <rect x="158" y="198" width="84" height="19" rx="9" fill="#e63946" fill-opacity="0.12" stroke="#e63946" stroke-width="1"/>
  <text x="200" y="211" fill="#e63946" font-family="Barlow Condensed, sans-serif" font-weight="700" font-size="11" text-anchor="middle" letter-spacing="1">GRA OEM</text>
  <text x="200" y="237" fill="#e6e6ea" font-family="Barlow Condensed, sans-serif" font-weight="700" font-size="16" text-anchor="middle" letter-spacing="2">RÉGULATEUR AUDI A1/Q3</text>
  <text x="200" y="259" fill="#9aa0a6" font-family="Barlow, sans-serif" font-size="12" text-anchor="middle">AREPROG · Retrofit VAG</text>
</svg>
