<svg xmlns="http://www.w3.org/2000/svg" viewBox="0 0 400 300" role="img" aria-label="Kit ACC Régulateur adaptatif">
  <defs><linearGradient id="bg" x1="0" x2="0" y1="0" y2="1"><stop offset="0" stop-color="#1a1a1f"/><stop offset="1" stop-color="#2a2a33"/></linearGradient></defs>
  <rect width="400" height="300" fill="url(#bg)"/>
  <g fill="none" stroke="#e63946" stroke-width="3">
    <rect x="115" y="155" width="170" height="40" rx="6"/>
    <line x1="125" y1="165" x2="275" y2="165" stroke-width="1.5" opacity="0.5"/>
    <line x1="125" y1="175" x2="275" y2="175" stroke-width="1.5" opacity="0.5"/>
    <line x1="125" y1="185" x2="275" y2="185" stroke-width="1.5" opacity="0.5"/>
    <rect x="180" y="145" width="40" height="22" rx="4" fill="#e63946" fill-opacity="0.3"/>
    <path d="M 200 145 L 150 85 L 250 85 Z" fill="#e63946" fill-opacity="0.06"/>
    <path d="M 170 145 A 35 35 0 0 1 230 145" opacity="0.75"/>
    <path d="M 150 145 A 55 55 0 0 1 250 145" opacity="0.5"/>
    <path d="M 128 145 A 80 80 0 0 1 272 145" opacity="0.3"/>
    <line x1="200" y1="145" x2="200" y2="85" stroke-dasharray="5,4" opacity="0.4"/>
    <rect x="184" y="88" width="32" height="18" rx="3"/>
  </g>
  <text x="200" y="101" fill="#e63946" font-family="Barlow Condensed, sans-serif" font-weight="700" font-size="9" text-anchor="middle" letter-spacing="1">CIBLE</text>
  <rect x="140" y="210" width="120" height="19" rx="9" fill="#e63946" fill-opacity="0.12" stroke="#e63946" stroke-width="1"/>
  <text x="200" y="223" fill="#e63946" font-family="Barlow Condensed, sans-serif" font-weight="700" font-size="11" text-anchor="middle" letter-spacing="1">RADAR FRONTAL OEM</text>
  <text x="200" y="249" fill="#e6e6ea" font-family="Barlow Condensed, sans-serif" font-weight="700" font-size="15" text-anchor="middle" letter-spacing="2">KIT ACC ADAPTATIF</text>
  <text x="200" y="270" fill="#9aa0a6" font-family="Barlow, sans-serif" font-size="12" text-anchor="middle">AREPROG · Retrofit VAG</text>
</svg>
