<svg xmlns="http://www.w3.org/2000/svg" viewBox="0 0 400 300" role="img" aria-label="Module direction assistée VW">
  <defs><linearGradient id="bg" x1="0" x2="0" y1="0" y2="1"><stop offset="0" stop-color="#1a1a1f"/><stop offset="1" stop-color="#2a2a33"/></linearGradient></defs>
  <rect width="400" height="300" fill="url(#bg)"/>
  <g fill="none" stroke="#e63946" stroke-width="3">
    <rect x="125" y="95" width="150" height="98" rx="8"/>
    <line x1="140" y1="115" x2="170" y2="115" stroke-width="2" opacity="0.55"/>
    <line x1="170" y1="115" x2="170" y2="135" stroke-width="2" opacity="0.55"/>
    <line x1="230" y1="118" x2="258" y2="118" stroke-width="2" opacity="0.55"/>
    <line x1="230" y1="140" x2="230" y2="165" stroke-width="2" opacity="0.55"/>
    <line x1="140" y1="170" x2="175" y2="170" stroke-width="2" opacity="0.55"/>
    <rect x="145" y="108" width="30" height="18" rx="2" fill="#e63946" fill-opacity="0.2"/>
    <rect x="225" y="108" width="30" height="18" rx="2" fill="#e63946" fill-opacity="0.2"/>
    <circle cx="200" cy="148" r="22" stroke-width="2"/>
    <circle cx="200" cy="148" r="8" fill="#e63946" fill-opacity="0.5"/>
    <line x1="200" y1="126" x2="200" y2="140"/>
    <line x1="184" y1="160" x2="194" y2="154"/>
    <line x1="216" y1="160" x2="206" y2="154"/>
    <rect x="111" y="110" width="14" height="70" rx="3"/>
    <line x1="111" y1="122" x2="125" y2="122" stroke-width="2"/>
    <line x1="111" y1="138" x2="125" y2="138" stroke-width="2"/>
    <line x1="111" y1="154" x2="125" y2="154" stroke-width="2"/>
    <line x1="111" y1="170" x2="125" y2="170" stroke-width="2"/>
    <rect x="275" y="110" width="14" height="70" rx="3"/>
    <line x1="275" y1="122" x2="289" y2="122" stroke-width="2"/>
    <line x1="275" y1="138" x2="289" y2="138" stroke-width="2"/>
    <line x1="275" y1="154" x2="289" y2="154" stroke-width="2"/>
    <line x1="275" y1="170" x2="289" y2="170" stroke-width="2"/>
  </g>
  <rect x="140" y="205" width="120" height="19" rx="9" fill="#e63946" fill-opacity="0.12" stroke="#e63946" stroke-width="1"/>
  <text x="200" y="218" fill="#e63946" font-family="Barlow Condensed, sans-serif" font-weight="700" font-size="11" text-anchor="middle" letter-spacing="1">EXTENSION FONCTIONS</text>
  <text x="200" y="243" fill="#e6e6ea" font-family="Barlow Condensed, sans-serif" font-weight="700" font-size="15" text-anchor="middle" letter-spacing="2">MODULE DIRECTION VW</text>
  <text x="200" y="263" fill="#9aa0a6" font-family="Barlow, sans-serif" font-size="12" text-anchor="middle">AREPROG · Retrofit VAG</text>
</svg>
