<svg xmlns="http://www.w3.org/2000/svg" viewBox="0 0 400 300" role="img" aria-label="Module attelage AHK">
  <defs><linearGradient id="bg" x1="0" x2="0" y1="0" y2="1"><stop offset="0" stop-color="#1a1a1f"/><stop offset="1" stop-color="#2a2a33"/></linearGradient></defs>
  <rect width="400" height="300" fill="url(#bg)"/>
  <g fill="none" stroke="#e63946" stroke-width="3">
    <line x1="158" y1="140" x2="250" y2="140" stroke-width="5"/>
    <circle cx="255" cy="140" r="13" fill="#e63946" fill-opacity="0.25"/>
    <circle cx="255" cy="140" r="7" fill="#e63946"/>
    <circle cx="135" cy="140" r="28"/>
    <circle cx="135" cy="113" r="3" fill="#e63946"/>
    <circle cx="152" cy="118" r="3" fill="#e63946"/>
    <circle cx="162" cy="132" r="3" fill="#e63946"/>
    <circle cx="162" cy="148" r="3" fill="#e63946"/>
    <circle cx="152" cy="162" r="3" fill="#e63946"/>
    <circle cx="135" cy="167" r="3" fill="#e63946"/>
    <circle cx="118" cy="162" r="3" fill="#e63946"/>
    <circle cx="108" cy="148" r="3" fill="#e63946"/>
    <circle cx="108" cy="132" r="3" fill="#e63946"/>
    <circle cx="118" cy="118" r="3" fill="#e63946"/>
    <circle cx="135" cy="140" r="3" fill="#e63946"/>
    <circle cx="125" cy="128" r="3" fill="#e63946"/>
    <circle cx="146" cy="147" r="3" fill="#e63946"/>
    <rect x="268" y="110" width="72" height="55" rx="5"/>
    <rect x="268" y="162" width="14" height="11" rx="2"/>
    <rect x="326" y="162" width="14" height="11" rx="2"/>
    <line x1="280" y1="128" x2="328" y2="128" stroke-width="1.5" opacity="0.55"/>
    <line x1="280" y1="145" x2="328" y2="145" stroke-width="1.5" opacity="0.55"/>
  </g>
  <text x="135" y="95" fill="#e63946" font-family="Barlow Condensed, sans-serif" font-weight="700" font-size="10" text-anchor="middle" letter-spacing="1">13 BROCHES</text>
  <rect x="138" y="195" width="124" height="19" rx="9" fill="#e63946" fill-opacity="0.12" stroke="#e63946" stroke-width="1"/>
  <text x="200" y="208" fill="#e63946" font-family="Barlow Condensed, sans-serif" font-weight="700" font-size="11" text-anchor="middle" letter-spacing="1">ATTELAGE ÉLECTRIQUE</text>
  <text x="200" y="234" fill="#e6e6ea" font-family="Barlow Condensed, sans-serif" font-weight="700" font-size="16" text-anchor="middle" letter-spacing="2">MODULE AHK OEM</text>
  <text x="200" y="256" fill="#9aa0a6" font-family="Barlow, sans-serif" font-size="12" text-anchor="middle">AREPROG · Retrofit VAG</text>
</svg>
