<svg xmlns="http://www.w3.org/2000/svg" viewBox="0 0 400 300" role="img" aria-label="Module PDC 8K">
  <defs><linearGradient id="bg" x1="0" x2="0" y1="0" y2="1"><stop offset="0" stop-color="#1a1a1f"/><stop offset="1" stop-color="#2a2a33"/></linearGradient></defs>
  <rect width="400" height="300" fill="url(#bg)"/>
  <g fill="none" stroke="#e63946" stroke-width="3">
    <rect x="70" y="125" width="260" height="55" rx="28"/>
    <rect x="170" y="80" width="60" height="28" rx="5"/>
    <line x1="180" y1="108" x2="130" y2="150" stroke-dasharray="4,3"/>
    <line x1="220" y1="108" x2="270" y2="150" stroke-dasharray="4,3"/>
    <circle cx="125" cy="152" r="12" fill="#e63946" fill-opacity="0.15"/>
    <circle cx="125" cy="152" r="6" fill="#e63946"/>
    <circle cx="170" cy="147" r="12" fill="#e63946" fill-opacity="0.15"/>
    <circle cx="170" cy="147" r="6" fill="#e63946"/>
    <circle cx="230" cy="147" r="12" fill="#e63946" fill-opacity="0.15"/>
    <circle cx="230" cy="147" r="6" fill="#e63946"/>
    <circle cx="275" cy="152" r="12" fill="#e63946" fill-opacity="0.15"/>
    <circle cx="275" cy="152" r="6" fill="#e63946"/>
    <path d="M 105 133 A 25 25 0 0 0 105 171" opacity="0.5"/>
    <path d="M 295 133 A 25 25 0 0 1 295 171" opacity="0.5"/>
  </g>
  <text x="200" y="97" fill="#e63946" font-family="Barlow Condensed, sans-serif" font-weight="700" font-size="10" text-anchor="middle" letter-spacing="1">8K MODULE</text>
  <rect x="144" y="200" width="112" height="19" rx="9" fill="#e63946" fill-opacity="0.12" stroke="#e63946" stroke-width="1"/>
  <text x="200" y="213" fill="#e63946" font-family="Barlow Condensed, sans-serif" font-weight="700" font-size="11" text-anchor="middle" letter-spacing="1">ACTIVATION OEM · MQB</text>
  <text x="200" y="239" fill="#e6e6ea" font-family="Barlow Condensed, sans-serif" font-weight="700" font-size="15" text-anchor="middle" letter-spacing="2">MODULE PDC 8K ARRIÈRE</text>
  <text x="200" y="261" fill="#9aa0a6" font-family="Barlow, sans-serif" font-size="12" text-anchor="middle">AREPROG · Retrofit VAG</text>
</svg>
