<svg xmlns="http://www.w3.org/2000/svg" viewBox="0 0 400 300" role="img" aria-label="Activation CarPlay Android Auto">
  <defs><linearGradient id="bg" x1="0" x2="0" y1="0" y2="1"><stop offset="0" stop-color="#1a1a1f"/><stop offset="1" stop-color="#2a2a33"/></linearGradient></defs>
  <rect width="400" height="300" fill="url(#bg)"/>
  <g fill="none" stroke="#e63946" stroke-width="3">
    <rect x="162" y="72" width="76" height="122" rx="11"/>
    <rect x="180" y="78" width="40" height="5" rx="2" fill="#e63946" fill-opacity="0.3"/>
    <rect x="170" y="92" width="60" height="92" rx="3"/>
    <circle cx="200" cy="135" r="26" stroke-width="2.5"/>
    <circle cx="200" cy="135" r="9" fill="#e63946" fill-opacity="0.4"/>
    <line x1="200" y1="109" x2="200" y2="126" stroke-width="2.5"/>
    <line x1="180" y1="147" x2="192" y2="141" stroke-width="2.5"/>
    <line x1="220" y1="147" x2="208" y2="141" stroke-width="2.5"/>
    <line x1="200" y1="194" x2="200" y2="210"/>
    <rect x="189" y="210" width="22" height="9" rx="2"/>
  </g>
  <text x="200" y="175" fill="#e63946" font-family="Barlow Condensed, sans-serif" font-weight="700" font-size="9" text-anchor="middle" letter-spacing="1">AppConnect</text>
  <rect x="134" y="228" width="132" height="19" rx="9" fill="#e63946" fill-opacity="0.12" stroke="#e63946" stroke-width="1"/>
  <text x="200" y="241" fill="#e63946" font-family="Barlow Condensed, sans-serif" font-weight="700" font-size="11" text-anchor="middle" letter-spacing="1">ACTIVATION LOGICIELLE</text>
  <text x="200" y="264" fill="#e6e6ea" font-family="Barlow Condensed, sans-serif" font-weight="700" font-size="14" text-anchor="middle" letter-spacing="2">CARPLAY · ANDROID AUTO</text>
  <text x="200" y="282" fill="#9aa0a6" font-family="Barlow, sans-serif" font-size="11" text-anchor="middle">AREPROG · Retrofit VAG</text>
</svg>
