<svg xmlns="http://www.w3.org/2000/svg" viewBox="0 0 400 300" role="img" aria-label="Kit PDC avant complet">
  <defs><linearGradient id="bg" x1="0" x2="0" y1="0" y2="1"><stop offset="0" stop-color="#1a1a1f"/><stop offset="1" stop-color="#2a2a33"/></linearGradient></defs>
  <rect width="400" height="300" fill="url(#bg)"/>
  <g fill="none" stroke="#e63946" stroke-width="3">
    <rect x="70" y="125" width="260" height="55" rx="28"/>
    <line x1="90" y1="140" x2="310" y2="140" stroke-width="1.5" opacity="0.35"/>
    <line x1="90" y1="165" x2="310" y2="165" stroke-width="1.5" opacity="0.35"/>
    <circle cx="125" cy="152" r="12" fill="#e63946" fill-opacity="0.15"/>
    <circle cx="125" cy="152" r="6" fill="#e63946"/>
    <circle cx="170" cy="147" r="12" fill="#e63946" fill-opacity="0.15"/>
    <circle cx="170" cy="147" r="6" fill="#e63946"/>
    <circle cx="230" cy="147" r="12" fill="#e63946" fill-opacity="0.15"/>
    <circle cx="230" cy="147" r="6" fill="#e63946"/>
    <circle cx="275" cy="152" r="12" fill="#e63946" fill-opacity="0.15"/>
    <circle cx="275" cy="152" r="6" fill="#e63946"/>
    <path d="M 115 122 A 25 25 0 0 0 115 102" opacity="0.5"/>
    <path d="M 160 118 A 25 25 0 0 0 160 95" opacity="0.5"/>
    <path d="M 240 118 A 25 25 0 0 1 240 95" opacity="0.5"/>
    <path d="M 285 122 A 25 25 0 0 1 285 102" opacity="0.5"/>
  </g>
  <rect x="148" y="75" width="104" height="22" rx="4" fill="#e63946" fill-opacity="0.18" stroke="#e63946" stroke-width="2"/>
  <text x="200" y="91" fill="#e6e6ea" font-family="Barlow Condensed, sans-serif" font-weight="700" font-size="12" text-anchor="middle" letter-spacing="2">FRONT · AVANT</text>
  <rect x="138" y="200" width="124" height="19" rx="9" fill="#e63946" fill-opacity="0.12" stroke="#e63946" stroke-width="1"/>
  <text x="200" y="213" fill="#e63946" font-family="Barlow Condensed, sans-serif" font-weight="700" font-size="11" text-anchor="middle" letter-spacing="1">4 CAPTEURS + MODULE</text>
  <text x="200" y="239" fill="#e6e6ea" font-family="Barlow Condensed, sans-serif" font-weight="700" font-size="16" text-anchor="middle" letter-spacing="2">KIT PDC AVANT OEM</text>
  <text x="200" y="261" fill="#9aa0a6" font-family="Barlow, sans-serif" font-size="12" text-anchor="middle">AREPROG · Retrofit VAG</text>
</svg>
