<svg xmlns="http://www.w3.org/2000/svg" viewBox="0 0 400 300" role="img" aria-label="Ambiance RGBW retrofit">
  <defs><linearGradient id="bg" x1="0" x2="0" y1="0" y2="1"><stop offset="0" stop-color="#1a1a1f"/><stop offset="1" stop-color="#2a2a33"/></linearGradient></defs>
  <rect width="400" height="300" fill="url(#bg)"/>
  <g fill="none" stroke="#e63946" stroke-width="3">
    <path d="M 90 185 L 90 135 C 90 115 115 98 200 94 C 285 98 310 115 310 135 L 310 185 Z"/>
    <line x1="90" y1="135" x2="310" y2="135"/>
    <rect x="118" y="150" width="52" height="32" rx="5"/>
    <rect x="230" y="150" width="52" height="32" rx="5"/>
    <rect x="178" y="142" width="44" height="40" rx="3"/>
    <circle cx="200" cy="120" r="6" fill="#e63946" fill-opacity="0.5"/>
    <line x1="100" y1="135" x2="300" y2="135" stroke="#e63946" stroke-width="6" opacity="0.5"/>
    <line x1="90" y1="148" x2="90" y2="180" stroke="#e63946" stroke-width="6" opacity="0.5"/>
    <line x1="310" y1="148" x2="310" y2="180" stroke="#e63946" stroke-width="6" opacity="0.5"/>
    <line x1="100" y1="135" x2="300" y2="135" stroke="#e63946" stroke-width="14" opacity="0.12"/>
    <line x1="90" y1="148" x2="90" y2="180" stroke="#e63946" stroke-width="14" opacity="0.12"/>
    <line x1="310" y1="148" x2="310" y2="180" stroke="#e63946" stroke-width="14" opacity="0.12"/>
  </g>
  <circle cx="158" cy="215" r="7" fill="#e63946" opacity="0.85"/>
  <circle cx="178" cy="215" r="7" fill="#e6e6ea" opacity="0.65"/>
  <circle cx="198" cy="215" r="7" fill="#e63946" opacity="0.55"/>
  <circle cx="218" cy="215" r="7" fill="#e6e6ea" opacity="0.35"/>
  <circle cx="238" cy="215" r="7" fill="#e63946" opacity="0.25"/>
  <text x="200" y="247" fill="#e6e6ea" font-family="Barlow Condensed, sans-serif" font-weight="700" font-size="16" text-anchor="middle" letter-spacing="2">AMBIANCE RGBW OEM</text>
  <text x="200" y="268" fill="#9aa0a6" font-family="Barlow, sans-serif" font-size="12" text-anchor="middle">AREPROG · Retrofit VAG</text>
</svg>
