<svg xmlns="http://www.w3.org/2000/svg" viewBox="0 0 400 300" role="img" aria-label="Kit Lane Assist">
  <defs><linearGradient id="bg" x1="0" x2="0" y1="0" y2="1"><stop offset="0" stop-color="#1a1a1f"/><stop offset="1" stop-color="#2a2a33"/></linearGradient></defs>
  <rect width="400" height="300" fill="url(#bg)"/>
  <g fill="none" stroke="#e63946" stroke-width="3">
    <path d="M 130 195 L 188 95 L 212 95 L 270 195 Z" fill="#e63946" fill-opacity="0.06"/>
    <line x1="200" y1="168" x2="200" y2="152" stroke-dasharray="8,5"/>
    <line x1="200" y1="142" x2="200" y2="126" stroke-dasharray="8,5"/>
    <line x1="200" y1="116" x2="200" y2="100" stroke-dasharray="8,5"/>
    <line x1="148" y1="195" x2="190" y2="95"/>
    <line x1="252" y1="195" x2="210" y2="95"/>
    <rect x="178" y="75" width="44" height="22" rx="4"/>
    <circle cx="200" cy="86" r="7"/>
    <circle cx="200" cy="86" r="3" fill="#e63946"/>
    <path d="M 158 178 L 166 165 L 174 178 Z" fill="#e63946" fill-opacity="0.55"/>
    <path d="M 226 178 L 234 165 L 242 178 Z" fill="#e63946" fill-opacity="0.55"/>
  </g>
  <rect x="140" y="210" width="120" height="19" rx="9" fill="#e63946" fill-opacity="0.12" stroke="#e63946" stroke-width="1"/>
  <text x="200" y="223" fill="#e63946" font-family="Barlow Condensed, sans-serif" font-weight="700" font-size="11" text-anchor="middle" letter-spacing="1">CAMÉRA MULTIFONCTION</text>
  <text x="200" y="249" fill="#e6e6ea" font-family="Barlow Condensed, sans-serif" font-weight="700" font-size="15" text-anchor="middle" letter-spacing="2">KIT LANE ASSIST OEM</text>
  <text x="200" y="270" fill="#9aa0a6" font-family="Barlow, sans-serif" font-size="12" text-anchor="middle">AREPROG · Retrofit VAG</text>
</svg>
