<svg xmlns="http://www.w3.org/2000/svg" viewBox="0 0 400 300" role="img" aria-label="MISE À JOUR RNS 510">
  <defs><linearGradient id="bg" x1="0" x2="0" y1="0" y2="1"><stop offset="0" stop-color="#1a1a1f"/><stop offset="1" stop-color="#2a2a33"/></linearGradient></defs>
  <rect width="400" height="300" fill="url(#bg)"/>
  <g fill="none" stroke="#e63946" stroke-width="3">
    <path d="M 160 80 L 240 80 L 240 195 L 160 195 Z"/>
    <path d="M 160 80 L 160 100 L 175 115 L 175 80" fill="#e63946" fill-opacity="0.18"/>
    <line x1="172" y1="165" x2="172" y2="185" stroke-width="4" opacity="0.7"/>
    <line x1="184" y1="165" x2="184" y2="185" stroke-width="4" opacity="0.7"/>
    <line x1="196" y1="165" x2="196" y2="185" stroke-width="4" opacity="0.7"/>
    <line x1="208" y1="165" x2="208" y2="185" stroke-width="4" opacity="0.7"/>
    <line x1="220" y1="165" x2="220" y2="185" stroke-width="4" opacity="0.7"/>
    <line x1="232" y1="165" x2="232" y2="185" stroke-width="4" opacity="0.7"/>
    <path d="M 182 120 C 185 112 196 108 208 115 L 216 125 C 218 133 212 140 205 142 L 196 144 L 184 136 Z" stroke-width="2" opacity="0.55"/>
    <circle cx="200" cy="132" r="3" fill="#e63946" opacity="0.8"/>
  </g>
  <text x="200" y="156" fill="#e63946" font-family="Barlow Condensed, sans-serif" font-weight="700" font-size="22" text-anchor="middle" letter-spacing="1">V19 · 2024</text>
  <rect x="148" y="205" width="104" height="19" rx="9" fill="#e63946" fill-opacity="0.12" stroke="#e63946" stroke-width="1"/>
  <text x="200" y="218" fill="#e63946" font-family="Barlow Condensed, sans-serif" font-weight="700" font-size="11" text-anchor="middle" letter-spacing="1">CARTE SD EUROPE</text>
  <text x="200" y="243" fill="#e6e6ea" font-family="Barlow Condensed, sans-serif" font-weight="700" font-size="15" text-anchor="middle" letter-spacing="2">MISE À JOUR RNS 510</text>
  <text x="200" y="263" fill="#9aa0a6" font-family="Barlow, sans-serif" font-size="12" text-anchor="middle">AREPROG · Retrofit VAG</text>
</svg>
