<svg xmlns="http://www.w3.org/2000/svg" viewBox="0 0 400 300" role="img" aria-label="VIRTUAL COCKPIT A3 8V">
  <defs><linearGradient id="bg" x1="0" x2="0" y1="0" y2="1"><stop offset="0" stop-color="#1a1a1f"/><stop offset="1" stop-color="#2a2a33"/></linearGradient></defs>
  <rect width="400" height="300" fill="url(#bg)"/>
  <g fill="none" stroke="#e63946" stroke-width="3">
    <rect x="62" y="88" width="276" height="100" rx="10"/>
    <path d="M 82 178 A 50 50 0 0 1 182 178"/>
    <path d="M 92 178 A 40 40 0 0 1 172 178" stroke-width="1.5" opacity="0.45"/>
    <line x1="132" y1="132" x2="108" y2="158" stroke-width="2.5"/>
    <circle cx="132" cy="178" r="5" fill="#e63946"/>
    <path d="M 218 178 A 50 50 0 0 1 318 178"/>
    <path d="M 228 178 A 40 40 0 0 1 308 178" stroke-width="1.5" opacity="0.45"/>
    <line x1="268" y1="132" x2="292" y2="158" stroke-width="2.5"/>
    <circle cx="268" cy="178" r="5" fill="#e63946"/>
    <rect x="175" y="98" width="50" height="80" rx="4"/>
    <line x1="180" y1="115" x2="220" y2="115" stroke-width="1.5" opacity="0.55"/>
    <line x1="180" y1="128" x2="220" y2="128" stroke-width="1.5" opacity="0.55"/>
    <line x1="180" y1="141" x2="220" y2="141" stroke-width="1.5" opacity="0.55"/>
    <line x1="180" y1="154" x2="220" y2="154" stroke-width="1.5" opacity="0.55"/>
    <line x1="180" y1="167" x2="220" y2="167" stroke-width="1.5" opacity="0.55"/>
    <path d="M 200 165 L 203 150 L 196 138 L 200 118" stroke-width="2.5"/>
    <circle cx="200" cy="114" r="4" fill="#e63946"/>
  </g>
  <rect x="148" y="200" width="104" height="19" rx="9" fill="#e63946" fill-opacity="0.12" stroke="#e63946" stroke-width="1"/>
  <text x="200" y="213" fill="#e63946" font-family="Barlow Condensed, sans-serif" font-weight="700" font-size="11" text-anchor="middle" letter-spacing="1">AUDI A3 8V FACELIFT</text>
  <text x="200" y="239" fill="#e6e6ea" font-family="Barlow Condensed, sans-serif" font-weight="700" font-size="16" text-anchor="middle" letter-spacing="2">VIRTUAL COCKPIT A3 8V</text>
  <text x="200" y="261" fill="#9aa0a6" font-family="Barlow, sans-serif" font-size="12" text-anchor="middle">AREPROG · Retrofit VAG</text>
</svg>
