<svg xmlns="http://www.w3.org/2000/svg" viewBox="0 0 400 300" role="img" aria-label="VCDS HEX-V2 Ross-Tech">
  <defs><linearGradient id="bg" x1="0" x2="0" y1="0" y2="1"><stop offset="0" stop-color="#1a1a1f"/><stop offset="1" stop-color="#2a2a33"/></linearGradient></defs>
  <rect width="400" height="300" fill="url(#bg)"/>
  <g fill="none" stroke="#e63946" stroke-width="3">
    <rect x="180" y="60" width="40" height="16" rx="3"/>
    <rect x="187" y="66" width="7" height="7"/>
    <rect x="206" y="66" width="7" height="7"/>
    <line x1="200" y1="76" x2="200" y2="95"/>
    <rect x="160" y="95" width="80" height="46" rx="7"/>
    <rect x="170" y="108" width="18" height="8" rx="2"/>
    <circle cx="220" cy="118" r="5" fill="#e63946" fill-opacity="0.8"/>
    <line x1="200" y1="141" x2="200" y2="156"/>
    <rect x="155" y="156" width="90" height="42" rx="5"/>
    <line x1="168" y1="166" x2="168" y2="188" stroke-width="2.5" opacity="0.7"/>
    <line x1="180" y1="166" x2="180" y2="188" stroke-width="2.5" opacity="0.7"/>
    <line x1="192" y1="166" x2="192" y2="188" stroke-width="2.5" opacity="0.7"/>
    <line x1="204" y1="166" x2="204" y2="188" stroke-width="2.5" opacity="0.7"/>
    <line x1="216" y1="166" x2="216" y2="188" stroke-width="2.5" opacity="0.7"/>
    <line x1="228" y1="166" x2="228" y2="188" stroke-width="2.5" opacity="0.7"/>
  </g>
  <text x="200" y="124" fill="#e6e6ea" font-family="Barlow Condensed, sans-serif" font-weight="700" font-size="9" text-anchor="middle" letter-spacing="1">HEX-V2</text>
  <rect x="140" y="205" width="120" height="19" rx="9" fill="#e63946" fill-opacity="0.12" stroke="#e63946" stroke-width="1"/>
  <text x="200" y="218" fill="#e63946" font-family="Barlow Condensed, sans-serif" font-weight="700" font-size="11" text-anchor="middle" letter-spacing="1">ROSS-TECH OFFICIEL</text>
  <text x="200" y="244" fill="#e6e6ea" font-family="Barlow Condensed, sans-serif" font-weight="700" font-size="15" text-anchor="middle" letter-spacing="2">VCDS HEX-V2 USB</text>
  <text x="200" y="265" fill="#9aa0a6" font-family="Barlow, sans-serif" font-size="12" text-anchor="middle">AREPROG · Retrofit VAG</text>
</svg>
