<svg xmlns="http://www.w3.org/2000/svg" viewBox="0 0 400 300" role="img" aria-label="Interface VCDS 25.03">
  <defs><linearGradient id="bg" x1="0" x2="0" y1="0" y2="1"><stop offset="0" stop-color="#1a1a1f"/><stop offset="1" stop-color="#2a2a33"/></linearGradient></defs>
  <rect width="400" height="300" fill="url(#bg)"/>
  <g fill="none" stroke="#e63946" stroke-width="3">
    <rect x="180" y="62" width="40" height="16" rx="3"/>
    <rect x="187" y="68" width="7" height="7"/>
    <rect x="206" y="68" width="7" height="7"/>
    <path d="M 200 78 C 200 95 180 105 180 125" stroke-width="2.5"/>
    <rect x="140" y="125" width="120" height="65" rx="6"/>
    <circle cx="175" cy="140" r="3" fill="#e63946"/>
    <circle cx="190" cy="140" r="3" fill="#e63946"/>
    <circle cx="205" cy="140" r="3" fill="#e63946"/>
    <circle cx="220" cy="140" r="3" fill="#e63946"/>
    <circle cx="235" cy="140" r="3" fill="#e63946"/>
    <circle cx="175" cy="155" r="3" fill="#e63946"/>
    <circle cx="190" cy="155" r="3" fill="#e63946"/>
    <circle cx="205" cy="155" r="3" fill="#e63946"/>
    <circle cx="220" cy="155" r="3" fill="#e63946"/>
    <circle cx="235" cy="155" r="3" fill="#e63946"/>
    <circle cx="175" cy="170" r="3" fill="#e63946"/>
    <circle cx="190" cy="170" r="3" fill="#e63946"/>
    <circle cx="205" cy="170" r="3" fill="#e63946"/>
    <circle cx="220" cy="170" r="3" fill="#e63946"/>
    <circle cx="235" cy="170" r="3" fill="#e63946"/>
  </g>
  <text x="200" y="181" fill="#e63946" font-family="Barlow Condensed, sans-serif" font-weight="700" font-size="9" text-anchor="middle" opacity="0.9">OBD2</text>
  <rect x="150" y="196" width="100" height="19" rx="9" fill="#e63946" fill-opacity="0.12" stroke="#e63946" stroke-width="1"/>
  <text x="200" y="209" fill="#e63946" font-family="Barlow Condensed, sans-serif" font-weight="700" font-size="11" text-anchor="middle" letter-spacing="1">VERSION 25.03 FR</text>
  <text x="200" y="235" fill="#e6e6ea" font-family="Barlow Condensed, sans-serif" font-weight="700" font-size="16" text-anchor="middle" letter-spacing="2">INTERFACE VCDS 25.03</text>
  <text x="200" y="257" fill="#9aa0a6" font-family="Barlow, sans-serif" font-size="12" text-anchor="middle">AREPROG · Retrofit VAG</text>
</svg>
